<svg fill="#ffffff" role="img" viewBox="0 0 24 24" xmlns="http://www.w3.org/2000/svg"><title>Rolex</title><path d="M21.03 14.28a.46.46 0 0 0-.21-.36c-.45-.25-1.42-.81-2.43-2.15-1.12-1.49-1.38-2.67-1.38-2.67s-.03-.12-.13-.15a.27.27 0 0 0-.31.09l-1.92 2.62-1.93-2.62a.27.27 0 0 0-.31-.09c-.1.03-.13.15-.13.15s-.26 1.18-1.38 2.67c-1.01 1.34-1.98 1.9-2.43 2.15a.46.46 0 0 0-.21.36v.12a.45.45 0 0 0 .45.45h11.88a.45.45 0 0 0 .45-.45v-.12zm-4.5-6.52c.62 0 1.13-.51 1.13-1.13s-.51-1.13-1.13-1.13-1.13.51-1.13 1.13.51 1.13 1.13 1.13zm-4.53 0c.62 0 1.13-.51 1.13-1.13s-.51-1.13-1.13-1.13-1.13.51-1.13 1.13.51 1.13 1.13 1.13zm-4.53 0c.62 0 1.13-.51 1.13-1.13s-.51-1.13-1.13-1.13-1.13.51-1.13 1.13.51 1.13 1.13 1.13zM12 21.38c2.83 0 5.12-1.12 5.12-2.5s-2.29-2.5-5.12-2.5-5.12 1.12-5.12 2.5 2.29 2.5 5.12 2.5z"/></svg>
